<svg width="367" height="189" viewBox="0 0 367 189" fill="none" xmlns="http://www.w3.org/2000/svg">
<path d="M289.143 111.561C289.189 111.86 289.193 112.164 289.154 112.463C289.132 112.636 289.108 112.811 289.082 112.986C289.034 113.333 288.977 113.678 288.918 114.023C287.584 121.779 284.027 128.979 278.678 134.751L278.737 134.646C277.875 135.614 276.73 136.286 275.465 136.567C274.199 136.847 272.878 136.722 271.688 136.209C270.497 135.696 269.499 134.82 268.834 133.708C268.17 132.595 267.873 131.301 267.985 130.01C267.986 129.996 267.986 129.982 267.985 129.968C268.016 129.638 268.074 129.31 268.158 128.989C268.595 128.216 269.006 127.421 269.384 126.606C271.191 122.73 272.229 118.541 272.442 114.27C270.483 112.343 269.278 109.779 269.045 107.041C267.359 107.148 265.717 107.624 264.235 108.434C262.753 109.245 261.467 110.371 260.467 111.732C259.467 113.094 258.778 114.658 258.448 116.314C258.118 117.971 258.156 119.68 258.558 121.321C258.705 121.93 258.903 122.527 259.15 123.104C259.262 123.441 259.371 123.78 259.478 124.119C259.584 124.459 259.684 124.778 259.779 125.076C259.866 125.354 259.954 125.634 260.037 125.913C260.078 126.044 260.118 126.178 260.159 126.309C260.334 126.892 260.507 127.473 260.675 128.056C260.771 128.389 260.865 128.723 260.959 129.055C261.053 129.387 261.142 129.71 261.232 130.038V130.075C261.322 130.405 261.411 130.731 261.496 131.063C261.496 131.1 261.518 131.137 261.527 131.174C261.627 131.554 261.726 131.935 261.826 132.317C261.933 132.734 262.045 133.154 262.143 133.573C262.143 133.593 262.143 133.612 262.158 133.63C262.248 133.997 262.338 134.362 262.425 134.722C262.44 134.794 262.458 134.864 262.475 134.941C262.567 135.33 262.659 135.716 262.746 136.103C263.397 138.939 263.967 141.805 264.455 144.7C264.731 146.343 264.981 147.995 265.204 149.656C265.287 150.276 265.368 150.897 265.442 151.517C266.163 157.443 266.533 163.406 266.552 169.376C266.552 169.551 266.552 169.728 266.552 169.902C266.56 175.396 266.27 180.887 265.685 186.35C263.673 188.014 261.156 188.948 258.545 188.998C255.934 189.048 253.383 188.213 251.309 186.627C251.409 184.361 251.459 182.083 251.459 179.793C251.459 175.987 251.32 172.216 251.042 168.48C250.751 164.496 250.302 160.558 249.696 156.664C249.237 153.686 248.692 150.738 248.06 147.82C247.847 146.837 247.629 145.858 247.404 144.884C244.948 134.53 241.392 124.468 236.799 114.869C234.873 110.317 231.964 106.249 228.278 102.955C228.296 102.931 228.316 102.909 228.333 102.887C226.787 101.826 225.523 100.405 224.65 98.7453C223.777 97.0859 223.322 95.2388 223.323 93.3638C223.323 92.9683 223.345 92.5751 223.382 92.1883C223.606 89.9829 224.46 87.8884 225.841 86.1551C227.223 84.4218 229.075 83.1229 231.175 82.4135C233.275 81.7041 235.535 81.6143 237.685 82.1548C239.835 82.6952 241.784 83.8431 243.299 85.4613C243.378 85.5531 243.461 85.6426 243.546 85.73L243.563 85.7497C244.238 86.4224 245.104 86.8695 246.043 87.0295C246.982 87.1895 247.948 87.0546 248.807 86.6433C255.876 83.2041 263.552 81.1886 271.398 80.7115C272.645 80.6358 273.903 80.5972 275.171 80.5957C276.753 80.5957 278.318 80.6554 279.866 80.7749C280.491 80.8229 281.112 80.8819 281.732 80.9475C282.538 81.0362 283.292 81.389 283.877 81.9509C284.462 82.5128 284.845 83.2523 284.966 84.0543L285.918 90.3531C285.918 90.3531 288.68 108.481 289.143 111.561Z" fill="black"/>
<path d="M270.467 142.12C270.469 143.429 270.243 144.728 269.799 145.959C268.354 147.285 266.825 148.517 265.222 149.645C265 147.985 264.75 146.333 264.472 144.69C263.984 141.796 263.415 138.93 262.764 136.093C263.241 135.612 263.705 135.117 264.153 134.609C264.37 134.364 264.635 134.168 264.933 134.034C265.231 133.9 265.554 133.831 265.88 133.831C266.207 133.831 266.53 133.9 266.828 134.034C267.125 134.168 267.391 134.364 267.607 134.609C269.331 136.543 270.334 139.013 270.448 141.601C270.463 141.762 270.467 141.941 270.467 142.12Z" fill="black"/>
<path d="M81.6879 57.9893V73.8861C73.9318 67.3971 65.907 64.1527 57.6134 64.1527C48.4751 64.1527 40.7758 67.435 34.5156 73.9997C28.2189 80.5279 25.0706 88.5149 25.0706 97.9606C25.0706 107.291 28.2189 115.163 34.5156 121.576C40.8122 127.989 48.5319 131.194 57.6746 131.189C62.3982 131.189 66.411 130.422 69.713 128.887C71.7162 128.031 73.6349 126.989 75.4437 125.775C77.6163 124.323 79.7027 122.746 81.6923 121.052V137.237C74.0105 141.576 65.9456 143.746 57.4976 143.746C44.7864 143.746 33.9351 139.31 24.9439 130.44C16.0051 121.498 11.5356 110.713 11.5356 98.0829C11.5356 86.7568 15.279 76.6579 22.7656 67.786C31.9812 56.9202 43.9037 51.4873 58.5332 51.4873C66.5209 51.4829 74.2392 53.6503 81.6879 57.9893Z" fill="black"/>
<path d="M99.053 40.0522L111.989 40.8147L109.289 86.5823C114.133 82.7152 119.334 80.9447 124.891 81.271C131.215 81.6439 136.153 83.9933 139.706 88.3192C142.717 92.0757 143.991 97.8632 143.529 105.682L141.502 140.008L128.565 139.243L130.532 106.125C130.795 101.641 130.192 98.3454 128.721 96.2392C127.249 94.133 124.75 92.9758 121.222 92.7675C116.7 92.501 113.436 93.7121 111.43 96.4009C109.462 99.1319 108.274 103.946 107.867 110.845L106.267 137.936L93.3309 137.174L99.053 40.0522Z" fill="black"/>
<path d="M198.329 82.9775L211.313 82.0337L215.384 137.985L202.399 138.939L201.962 133.082C197.01 138.448 191.466 141.354 185.329 141.799C177.595 142.362 170.997 140.031 165.535 134.808C160.102 129.467 157.075 122.526 156.455 113.984C155.843 105.599 157.843 98.4278 162.454 92.4706C167.066 86.5133 173.146 83.2572 180.695 82.7022C187.203 82.2289 193.238 84.4865 198.801 89.4752L198.329 82.9775ZM169.677 113.012C170.068 118.375 171.821 122.637 174.938 125.798C178.135 128.992 181.974 130.426 186.454 130.1C191.241 129.75 194.989 127.822 197.7 124.314C200.4 120.692 201.559 116.257 201.178 111.011C200.796 105.764 199.007 101.544 195.81 98.3499C192.618 95.2329 188.668 93.8455 183.957 94.1878C179.516 94.5112 175.924 96.4666 173.182 100.054C170.48 103.676 169.312 107.996 169.677 113.012Z" fill="black"/>
<path d="M295.494 80.9979L310.235 78.6799L311.131 84.38C313.392 81.1159 315.488 78.7942 317.419 77.4148C319.387 75.9889 321.834 75.0421 324.762 74.5746C328.648 73.9628 332.909 74.5906 337.545 76.4579L332.918 91.0153C329.807 89.4466 326.919 88.8713 324.255 89.2893C316.219 90.5522 313.156 97.2523 315.066 109.39L320.268 142.472L305.527 144.79L295.494 80.9979Z" fill="black"/>
<path d="M349.472 62.9731C349.974 60.814 351.303 58.9382 353.173 57.7491C355.044 56.5601 357.307 56.1529 359.474 56.6152C360.567 56.8362 361.603 57.2786 362.517 57.9152C363.432 58.5517 364.207 59.3689 364.794 60.3163C365.414 61.2333 365.836 62.2691 366.034 63.358C366.232 64.4469 366.201 65.565 365.944 66.6414C365.724 67.7331 365.283 68.7684 364.648 69.6837C364.014 70.5989 363.199 71.3748 362.253 71.9636C361.335 72.5848 360.298 73.0079 359.207 73.2057C358.116 73.4036 356.996 73.3719 355.918 73.1128C354.826 72.8751 353.792 72.4235 352.876 71.7839C351.96 71.1444 351.18 70.3297 350.581 69.3868C349.981 68.444 349.575 67.3917 349.385 66.2909C349.194 65.19 349.224 64.0623 349.472 62.9731ZM359.048 88.9527L347.032 143.75L334.373 140.975L346.39 86.178L359.048 88.9527Z" fill="black"/>
<path d="M289.835 172.654C289.835 172.037 289.738 171.493 289.545 171.021C289.364 170.537 289.037 170.102 288.565 169.715C288.106 169.328 287.464 168.959 286.642 168.608C285.831 168.257 284.803 167.9 283.557 167.537C282.251 167.15 281.072 166.721 280.019 166.249C278.967 165.765 278.066 165.215 277.316 164.598C276.566 163.981 275.991 163.273 275.592 162.475C275.193 161.677 274.993 160.763 274.993 159.735C274.993 158.707 275.205 157.758 275.628 156.887C276.052 156.016 276.657 155.26 277.443 154.619C278.241 153.965 279.191 153.457 280.291 153.095C281.392 152.732 282.62 152.55 283.975 152.55C285.958 152.55 287.64 152.931 289.019 153.693C290.41 154.443 291.468 155.429 292.194 156.651C292.92 157.86 293.283 159.155 293.283 160.534H289.799C289.799 159.542 289.587 158.665 289.164 157.903C288.741 157.129 288.099 156.524 287.241 156.088C286.382 155.641 285.293 155.417 283.975 155.417C282.729 155.417 281.701 155.604 280.89 155.979C280.08 156.354 279.475 156.862 279.076 157.504C278.689 158.145 278.495 158.876 278.495 159.699C278.495 160.255 278.61 160.763 278.84 161.223C279.082 161.671 279.451 162.088 279.947 162.475C280.455 162.862 281.096 163.219 281.87 163.546C282.656 163.872 283.594 164.187 284.682 164.489C286.182 164.912 287.477 165.384 288.565 165.904C289.654 166.424 290.549 167.011 291.251 167.664C291.964 168.305 292.49 169.037 292.829 169.86C293.18 170.67 293.355 171.59 293.355 172.618C293.355 173.694 293.138 174.668 292.702 175.539C292.267 176.41 291.644 177.154 290.833 177.771C290.023 178.388 289.049 178.865 287.912 179.204C286.787 179.531 285.529 179.694 284.138 179.694C282.916 179.694 281.713 179.525 280.527 179.186C279.354 178.847 278.283 178.339 277.316 177.662C276.36 176.984 275.592 176.15 275.011 175.158C274.443 174.154 274.159 172.993 274.159 171.674H277.642C277.642 172.581 277.818 173.362 278.169 174.015C278.519 174.656 278.997 175.188 279.602 175.611C280.219 176.035 280.914 176.349 281.689 176.555C282.475 176.749 283.291 176.845 284.138 176.845C285.36 176.845 286.394 176.676 287.241 176.337C288.087 175.999 288.728 175.515 289.164 174.886C289.611 174.257 289.835 173.513 289.835 172.654ZM305.53 159.699V162.275H294.916V159.699H305.53ZM298.508 154.927H301.865V174.468C301.865 175.134 301.968 175.636 302.173 175.974C302.379 176.313 302.645 176.537 302.972 176.646C303.298 176.755 303.649 176.809 304.024 176.809C304.302 176.809 304.593 176.785 304.895 176.736C305.209 176.676 305.445 176.628 305.603 176.591L305.621 179.331C305.355 179.416 305.004 179.494 304.568 179.567C304.145 179.652 303.631 179.694 303.026 179.694C302.204 179.694 301.448 179.531 300.758 179.204C300.069 178.877 299.518 178.333 299.107 177.571C298.708 176.797 298.508 175.757 298.508 174.45V154.927ZM308.215 169.733V169.315C308.215 167.9 308.421 166.588 308.832 165.378C309.244 164.156 309.836 163.098 310.61 162.203C311.385 161.296 312.322 160.594 313.423 160.098C314.524 159.59 315.757 159.336 317.124 159.336C318.503 159.336 319.743 159.59 320.844 160.098C321.957 160.594 322.9 161.296 323.674 162.203C324.46 163.098 325.059 164.156 325.471 165.378C325.882 166.588 326.087 167.9 326.087 169.315V169.733C326.087 171.148 325.882 172.46 325.471 173.67C325.059 174.88 324.46 175.938 323.674 176.845C322.9 177.74 321.963 178.442 320.862 178.95C319.773 179.446 318.539 179.694 317.16 179.694C315.782 179.694 314.542 179.446 313.441 178.95C312.34 178.442 311.397 177.74 310.61 176.845C309.836 175.938 309.244 174.88 308.832 173.67C308.421 172.46 308.215 171.148 308.215 169.733ZM311.572 169.315V169.733C311.572 170.713 311.687 171.638 311.917 172.509C312.147 173.368 312.491 174.13 312.951 174.795C313.423 175.46 314.009 175.986 314.711 176.374C315.413 176.749 316.229 176.936 317.16 176.936C318.08 176.936 318.884 176.749 319.574 176.374C320.275 175.986 320.856 175.46 321.315 174.795C321.775 174.13 322.12 173.368 322.35 172.509C322.592 171.638 322.713 170.713 322.713 169.733V169.315C322.713 168.348 322.592 167.434 322.35 166.576C322.12 165.705 321.769 164.937 321.297 164.271C320.838 163.594 320.257 163.062 319.555 162.675C318.866 162.288 318.056 162.094 317.124 162.094C316.205 162.094 315.394 162.288 314.693 162.675C314.003 163.062 313.423 163.594 312.951 164.271C312.491 164.937 312.147 165.705 311.917 166.576C311.687 167.434 311.572 168.348 311.572 169.315ZM333.654 162.784V179.331H330.297V159.699H333.563L333.654 162.784ZM339.786 159.59L339.768 162.711C339.49 162.65 339.224 162.614 338.97 162.602C338.728 162.578 338.45 162.566 338.135 162.566C337.361 162.566 336.678 162.687 336.085 162.929C335.492 163.171 334.99 163.509 334.579 163.945C334.168 164.38 333.841 164.9 333.599 165.505C333.369 166.098 333.218 166.751 333.146 167.465L332.202 168.009C332.202 166.824 332.317 165.711 332.547 164.671C332.789 163.63 333.158 162.711 333.654 161.913C334.15 161.102 334.779 160.473 335.541 160.026C336.315 159.566 337.234 159.336 338.298 159.336C338.54 159.336 338.819 159.366 339.133 159.427C339.448 159.475 339.665 159.53 339.786 159.59ZM350.673 179.694C349.306 179.694 348.066 179.464 346.953 179.004C345.853 178.533 344.903 177.873 344.105 177.027C343.318 176.18 342.714 175.176 342.29 174.015C341.867 172.854 341.655 171.583 341.655 170.205V169.442C341.655 167.846 341.891 166.424 342.363 165.179C342.835 163.921 343.476 162.856 344.286 161.985C345.097 161.114 346.016 160.455 347.044 160.007C348.072 159.56 349.137 159.336 350.237 159.336C351.641 159.336 352.85 159.578 353.866 160.062C354.894 160.546 355.735 161.223 356.388 162.094C357.041 162.953 357.525 163.969 357.84 165.142C358.154 166.304 358.312 167.574 358.312 168.953V170.459H343.651V167.719H354.955V167.465C354.907 166.594 354.725 165.747 354.411 164.925C354.108 164.102 353.624 163.425 352.959 162.892C352.294 162.36 351.387 162.094 350.237 162.094C349.475 162.094 348.774 162.257 348.133 162.584C347.492 162.898 346.941 163.37 346.482 163.999C346.022 164.628 345.665 165.396 345.411 166.304C345.157 167.211 345.03 168.257 345.03 169.442V170.205C345.03 171.136 345.157 172.013 345.411 172.835C345.677 173.646 346.058 174.36 346.554 174.976C347.062 175.593 347.673 176.077 348.387 176.428C349.112 176.779 349.935 176.954 350.854 176.954C352.04 176.954 353.044 176.712 353.866 176.228C354.689 175.745 355.408 175.097 356.025 174.287L358.058 175.902C357.634 176.543 357.096 177.154 356.443 177.734C355.79 178.315 354.985 178.787 354.03 179.15C353.086 179.512 351.967 179.694 350.673 179.694Z" fill="black"/>
<path d="M16.9998 67.1591C16.7998 67.1577 16.6005 67.1343 16.4056 67.0892L16.1412 67.0324L15.9227 66.8598C15.5775 66.5714 15.0335 65.9181 15.2673 64.7776C15.3473 64.3472 15.4893 63.9307 15.689 63.541C17.2882 59.2042 19.1978 54.5068 21.3695 49.5757C23.5412 44.6446 25.8025 39.661 28.0965 34.7736C30.3906 29.8861 32.6497 25.1604 34.7864 20.7405C36.554 17.0918 38.1226 13.7622 39.4641 10.8083C34.876 11.4506 30.4102 12.259 26.1367 13.2116C21.2165 14.304 16.2024 15.4685 11.2363 16.6527C10.0915 16.928 8.86504 17.2258 7.55706 17.5463C6.30258 17.8512 5.01591 18.0038 3.72489 18.0007C3.537 18.0007 3.3491 18.0007 3.15903 18.0007C2.69777 17.9989 2.23742 17.9595 1.78259 17.8827C1.38952 17.8242 1.0212 17.6551 0.720618 17.3951C0.420035 17.1351 0.199582 16.7951 0.0849858 16.4145L0.0587691 16.3337L0.0434754 16.2485C-0.175006 14.9376 0.480439 14.2428 0.886815 13.9369C1.3031 13.626 1.74038 13.3442 2.19552 13.0936L2.23485 13.0718L2.27417 13.0521C2.81164 12.8096 3.45616 12.554 4.18807 12.294C4.97877 12.014 5.79793 11.822 6.6307 11.7215C7.10266 11.6643 7.5776 11.6351 8.05301 11.6342C8.40477 11.6342 8.75871 11.6516 9.1061 11.6844C10.0079 11.7585 10.8708 12.0839 11.5968 12.6239L11.7497 12.7375L11.8437 12.8795C16.4318 11.8002 21.1051 10.7668 25.7631 9.80765C30.6943 8.78952 35.8548 7.88938 41.1115 7.12687C41.3846 6.52386 41.6489 5.89464 41.9046 5.25012C42.1908 4.52039 42.4901 3.7994 42.7938 3.10244C42.6402 2.56987 42.6593 2.00232 42.8484 1.48131C43.1608 0.541834 43.86 0 44.7601 0C45.2464 0.0055243 45.717 0.173137 46.0972 0.47629C46.4758 0.752168 46.7487 1.14918 46.8707 1.60147L46.8881 1.68449C46.9717 2.2288 46.8669 2.78534 46.591 3.26193C46.4705 3.48141 46.3626 3.70754 46.2677 3.93923L46.2414 3.99822C45.9239 4.67842 45.5838 5.43801 45.2211 6.27698C45.1731 6.38841 45.125 6.49546 45.0769 6.60689C48.3541 6.23547 51.8499 5.88153 55.4723 5.55818C57.8756 5.33969 60.3641 5.23264 62.8329 5.23264C64.867 5.23264 66.9469 5.30692 69.016 5.45112C70.3269 5.54507 71.7295 5.68489 73.2086 5.8706H73.2654L73.3201 5.88371C73.9427 6.02791 74.6004 6.20925 75.2689 6.42555C76.3089 6.75764 76.9687 7.47207 77.1282 8.43558C77.2724 9.44496 76.7917 9.96495 76.4946 10.1834C76.413 10.2478 76.3453 10.328 76.2958 10.4194L76.1669 10.6379L75.9615 10.7755C75.8158 10.8731 75.617 10.9976 75.365 11.1491C75.1153 11.3028 74.828 11.3845 74.5348 11.3851C74.3062 11.3816 74.0807 11.3317 73.8719 11.2386C73.6631 11.1455 73.4754 11.011 73.3201 10.8432L73.0448 10.5701L73.0033 10.1834C72.9581 9.85654 72.9934 9.52357 73.1059 9.21338C72.645 9.1147 72.1789 9.04176 71.7099 8.99489C70.2766 8.83759 68.7188 8.7349 67.0824 8.6912C66.2536 8.6679 65.4394 8.65625 64.6398 8.65625C63.8401 8.65625 63.0558 8.6679 62.2867 8.6912C60.7443 8.7349 59.5994 8.78297 58.8784 8.82666C56.0382 8.91842 53.2634 9.10195 50.5761 9.37505C48.1029 9.6263 45.6734 9.91907 43.3466 10.249C41.2513 14.4984 39.2369 18.8025 37.3536 23.0498C35.3873 27.4959 33.3161 32.0076 31.2099 36.4406C29.1649 40.8495 27.1046 45.3546 25.0924 49.8226C23.2309 53.9475 21.4459 58.2319 19.7811 62.5732C19.917 62.7052 20.0255 62.8626 20.1004 63.0366C20.1754 63.2105 20.2154 63.3975 20.2181 63.5869C20.262 63.9223 20.2194 64.2634 20.0944 64.5778C19.9693 64.8921 19.766 65.1692 19.5036 65.3828C19.3719 65.4848 19.2582 65.6082 19.1672 65.7477L19.13 65.8111L19.082 65.8701C18.8563 66.1521 18.6079 66.4152 18.3391 66.6566C17.9706 66.9846 17.4932 67.1638 16.9998 67.1591Z" fill="black"/>
<path d="M55.5709 6.65321C60.0165 6.26146 64.4864 6.22639 68.9376 6.54834C70.2237 6.6401 71.6016 6.77774 73.0713 6.96127C73.6677 7.1011 74.2882 7.27151 74.9328 7.47907C75.5773 7.68663 75.9421 8.0646 76.0252 8.61517C76.0591 8.73793 76.0578 8.86776 76.0215 8.98983C75.9852 9.1119 75.9153 9.22131 75.8198 9.30558C75.6241 9.45541 75.4599 9.64253 75.3369 9.85615C75.1993 9.94791 75.0136 10.0637 74.7842 10.2013C74.5548 10.339 74.3254 10.2931 74.096 10.0637C74.0501 9.64859 74.1659 9.40826 74.4412 9.33835C74.5788 9.30263 74.7036 9.2287 74.801 9.12509C74.8984 9.02148 74.9646 8.89242 74.9917 8.75282C74.3494 8.33916 73.2927 8.05222 71.8216 7.892C70.3505 7.73178 68.7774 7.62836 67.1024 7.58175C65.4273 7.5366 63.8084 7.5366 62.2455 7.58175C60.6826 7.62691 59.5342 7.67279 58.8001 7.7194C55.9525 7.81116 53.1741 7.99541 50.465 8.27216C47.7558 8.5489 45.134 8.87007 42.5996 9.23566C40.3959 13.6898 38.3057 18.1453 36.3292 22.6024C34.3527 27.0594 32.3091 31.5142 30.1986 35.9669C28.1303 40.4239 26.0861 44.8911 24.0658 49.3686C22.0456 53.846 20.1448 58.4509 18.3635 63.1832C18.4859 63.2837 18.6425 63.333 18.8004 63.3208C19.0058 63.3208 19.1107 63.4344 19.1107 63.6638C19.1426 63.8239 19.1307 63.9897 19.0761 64.1436C19.0214 64.2974 18.9262 64.4336 18.8004 64.5377C18.5684 64.7203 18.3702 64.9421 18.2149 65.1932C18.0259 65.4279 17.8184 65.6471 17.5944 65.8486C17.4601 65.9546 17.3016 66.0258 17.1332 66.056C16.9647 66.0861 16.7915 66.0741 16.6287 66.0212C16.3534 65.7926 16.2617 65.459 16.3534 65.0206C16.4147 64.6715 16.5312 64.3345 16.6986 64.0221C18.3008 59.6525 20.1943 54.9916 22.3792 50.0393C24.564 45.0871 26.8027 40.161 29.0953 35.2612C31.3908 30.3672 33.6186 25.6932 35.7786 21.239C37.9387 16.7849 39.7805 12.853 41.304 9.44322C35.976 10.1307 30.8431 11.0265 25.9054 12.1305C20.9678 13.2346 15.9951 14.3824 10.9875 15.5738C9.84121 15.8491 8.61262 16.1477 7.30173 16.4696C5.96092 16.7949 4.58181 16.9345 3.20301 16.8847C2.78714 16.8845 2.37203 16.8495 1.96203 16.7798C1.76858 16.7537 1.5871 16.6712 1.44023 16.5426C1.29337 16.414 1.18761 16.245 1.13617 16.0567C1.04441 15.5061 1.18205 15.0924 1.5491 14.8157C1.9218 14.5373 2.31306 14.2848 2.72016 14.0597C3.22704 13.8413 3.83442 13.5878 4.54667 13.3344C5.26041 13.0823 5.99966 12.9094 6.75115 12.8188C7.49427 12.7276 8.24499 12.7159 8.99059 12.7838C9.68867 12.8395 10.3571 13.0901 10.9198 13.507C10.9648 13.573 10.9888 13.651 10.9888 13.7309C10.9888 13.8108 10.9648 13.8889 10.9198 13.9549C10.8555 14.0491 10.8089 14.1542 10.7821 14.2651C15.7868 13.0693 20.8505 11.9441 25.9732 10.8896C31.0958 9.83503 36.3897 8.91668 41.8546 8.13451C42.2217 7.35235 42.5778 6.52503 42.923 5.65256C43.2682 4.78009 43.6243 3.93093 43.9914 3.10506C43.8768 2.91482 43.8078 2.7007 43.7896 2.47938C43.7714 2.25806 43.8045 2.03553 43.8865 1.82913C44.0482 1.34702 44.3351 1.10596 44.7473 1.10596C44.9866 1.1099 45.2176 1.19459 45.4028 1.34629C45.5829 1.47193 45.716 1.65418 45.7807 1.86409C45.8226 2.1623 45.7617 2.46589 45.6081 2.72491C45.4681 2.98236 45.3419 3.2471 45.2302 3.518C44.9083 4.20548 44.5638 4.97454 44.1967 5.82516C43.8297 6.67579 43.5085 7.37638 43.2332 7.92696C47.0931 7.46814 51.2056 7.04356 55.5709 6.65321ZM6.5851 15.2308C7.78093 14.9555 8.95199 14.6795 10.0983 14.4028C8.81633 13.9899 7.44474 13.9423 6.13722 14.2651C4.9504 14.5215 3.80333 14.9359 2.72672 15.4973C4.01896 15.5983 5.31902 15.5085 6.5851 15.2308Z" fill="black"/>
<path d="M34.6049 50.1847C34.2899 50.1997 33.9772 50.1242 33.7039 49.967C33.4305 49.8098 33.2079 49.5775 33.0625 49.2977C32.8868 48.9272 32.7993 48.5212 32.8068 48.1113C32.8091 47.7368 32.8538 47.3637 32.9401 46.9992C33.0057 46.7152 33.0603 46.4618 33.1062 46.2411C33.1979 45.7692 33.305 45.2841 33.423 44.7882C33.5409 44.2922 33.683 43.7919 33.8293 43.3506C35.1654 38.9169 36.7527 34.5628 38.5835 30.3094C40.3298 26.2584 42.4165 22.3627 44.8212 18.6643C45.2426 17.939 45.7173 17.246 46.2413 16.5909C46.7766 15.9158 47.3555 15.2189 47.9607 14.5219C48.5179 13.8665 49.1121 13.211 49.7217 12.584C50.4179 11.8541 51.2765 11.2987 52.2277 10.9629L52.2779 10.9454H52.3282C52.7159 10.8449 53.1112 10.777 53.5102 10.7422H53.6762C54.2247 10.7502 54.7526 10.9522 55.1663 11.3124L55.2602 11.3911L55.3367 11.4894C56.0074 12.3633 56.1931 13.4361 55.8698 14.5984C55.636 15.4352 55.4328 16.1583 55.2406 16.7635L55.2165 16.8422L55.1816 16.9143C54.1679 19.0375 53.0313 21.0998 51.7776 23.0908C50.5519 25.0353 49.252 26.9557 47.9127 28.7997C46.5734 30.6437 45.2013 32.4636 43.8205 34.2115C43.4068 34.7358 42.9699 35.2456 42.5096 35.7409C42.7128 35.5792 42.9182 35.4306 43.1214 35.3039C43.6647 34.9197 44.3109 34.7073 44.9763 34.6943C45.0712 34.694 45.166 34.6992 45.2603 34.7096H45.3171C46.3483 34.8669 47.0824 35.5399 47.3861 36.6039C47.6065 37.4151 47.7362 38.2482 47.7728 39.088L47.9105 41.6005C47.9105 41.7426 47.9302 41.8715 47.9454 41.9873L48.0263 41.937C48.4268 41.6689 48.8059 41.3701 49.1602 41.0434C49.6176 40.6341 50.1652 40.1331 50.8032 39.5403C51.4586 38.9329 52.3194 38.2075 53.3725 37.3838C53.7694 36.9894 54.2168 36.6492 54.7031 36.3723C54.9661 36.2134 55.2442 36.0809 55.5333 35.9768C55.7226 35.9019 55.9241 35.8626 56.1276 35.861C56.6847 35.861 57.362 36.1931 57.5936 37.1217L57.6526 37.362L57.6045 37.6067C57.5516 37.9178 57.4068 38.206 57.1887 38.4341C56.9707 38.6623 56.6894 38.82 56.381 38.887C56.3315 38.8946 56.2836 38.9101 56.239 38.9329L56.1844 38.9657C55.5112 39.3615 54.9026 39.8581 54.3797 40.4382C53.7581 41.136 53.0663 41.7678 52.3151 42.3237L51.3822 43.1234C51.085 43.379 50.7595 43.6849 50.4121 44.0301L50.3487 44.0891C50.0057 44.384 49.6015 44.703 49.1471 45.0351C48.6481 45.4164 48.0382 45.6243 47.4102 45.6272C47.232 45.6266 47.0543 45.6098 46.8793 45.5769L46.8093 45.5616C45.8742 45.33 45.2013 44.6396 44.9107 43.6193C44.6917 42.823 44.5728 42.0024 44.5568 41.1767C44.5349 40.3836 44.5 39.5905 44.4563 38.7974C44.4489 38.6591 44.4343 38.5213 44.4126 38.3845C44.2831 38.4749 44.165 38.5805 44.0608 38.6991C43.6199 39.2112 43.1486 39.6964 42.6494 40.152C42.2591 40.6327 41.868 41.1228 41.4762 41.6224C41.0684 42.1453 40.6591 42.6791 40.2483 43.2239C39.5033 44.2769 38.8653 45.223 38.3716 46.0073C37.8778 46.7917 37.443 47.4864 37.0978 48.037C36.8113 48.5113 36.4946 48.9667 36.1496 49.4003C35.5881 50.0449 35.0004 50.1847 34.6049 50.1847ZM38.719 39.7915L38.8632 39.5971L38.92 39.5424C39.3174 39.1364 39.6916 38.7082 40.0408 38.26C40.2461 38 40.4603 37.7443 40.6766 37.4953C40.1566 37.9541 39.6162 38.391 39.0554 38.8062C38.9418 39.1383 38.8304 39.4638 38.719 39.7915ZM45.5574 24.2094C44.4781 26.2325 43.4535 28.33 42.4987 30.4449C42.313 30.8622 42.1251 31.286 41.9394 31.7099C42.8949 30.5971 43.7972 29.4428 44.6464 28.2469C46.6433 25.4351 48.579 22.4484 50.3837 19.3722C50.6371 18.9025 50.9102 18.3912 51.1833 17.8691C51.4478 17.3583 51.6834 16.8331 51.889 16.296L51.9087 16.2479L52.2758 15.5095C52.3715 15.2993 52.4447 15.0796 52.4942 14.854C52.1872 15.1099 51.8954 15.3834 51.6203 15.6733C50.7831 16.5363 50.0119 17.4609 49.3131 18.4393C48.5725 19.4727 47.8668 20.5214 47.2157 21.5527C46.5646 22.5839 46.0119 23.4819 45.5574 24.2094Z" fill="black"/>
<path d="M37.6028 43.2551C38.3151 42.221 39.0157 41.2451 39.7046 40.3275C40.1326 39.8914 40.5353 39.4311 40.9106 38.9488C41.339 38.4056 41.7993 37.8883 42.2892 37.3998C42.7299 36.9505 43.2144 36.5465 43.7356 36.1938C44.1425 35.8937 44.6425 35.7474 45.147 35.7808C45.7442 35.8726 46.1345 36.2367 46.3181 36.8733C46.5157 37.6046 46.6315 38.3557 46.6632 39.1127C46.7099 39.9619 46.7557 40.8001 46.8009 41.6274C46.846 42.4547 47.0296 43.0745 47.3515 43.4867C47.7973 43.3107 48.2247 43.0911 48.6274 42.8313C49.0769 42.5315 49.5027 42.1977 49.9012 41.8328C50.36 41.4206 50.9113 40.9152 51.5551 40.3165C52.1989 39.7179 53.0487 39.0056 54.1047 38.1798C54.4516 37.8283 54.8458 37.5268 55.2758 37.284C55.4834 37.1591 55.703 37.0551 55.9312 36.9738C56.2306 36.8601 56.425 36.9869 56.5168 37.3539C56.5054 37.4538 56.4628 37.5476 56.3949 37.6218C56.327 37.696 56.2373 37.7467 56.1388 37.7668C55.9549 37.8037 55.7794 37.8741 55.621 37.9744C54.8496 38.4273 54.1525 38.9962 53.5542 39.6611C52.9739 40.3127 52.3273 40.9021 51.625 41.4199L50.6615 42.2457C50.341 42.521 49.9966 42.8422 49.628 43.2092C49.3076 43.4845 48.9282 43.7831 48.4898 44.105C48.2925 44.2595 48.0646 44.3702 47.8213 44.4298C47.5779 44.4893 47.3246 44.4962 47.0784 44.4502C46.5278 44.3133 46.1637 43.9229 45.986 43.2791C45.7924 42.5718 45.6881 41.8429 45.6757 41.1096C45.6524 40.3056 45.6175 39.5045 45.5708 38.7063C45.5242 37.9081 45.34 37.3 45.0181 36.882C44.3296 37.0561 43.7069 37.4274 43.2265 37.9504C42.7977 38.4492 42.338 38.9205 41.8501 39.3618C41.435 39.8686 41.0213 40.3857 40.6091 40.913C40.1969 41.4403 39.7833 41.9799 39.3681 42.5319C38.5874 43.636 37.9444 44.5893 37.439 45.3919C36.9335 46.1944 36.509 46.8717 36.1652 47.4237C35.9045 47.855 35.617 48.2694 35.3044 48.6647C35.2268 48.7802 35.1247 48.877 35.0054 48.9484C34.886 49.0198 34.7524 49.0639 34.614 49.0777C34.5053 49.0912 34.395 49.0723 34.297 49.0233C34.1991 48.9744 34.1178 48.8975 34.0634 48.8024C33.9645 48.5861 33.9173 48.3497 33.9258 48.112C33.9279 47.8221 33.9623 47.5334 34.0285 47.2511C34.0984 46.9518 34.1552 46.6896 34.2011 46.4602C34.2928 45.9992 34.3955 45.5295 34.5113 45.0467C34.6271 44.5638 34.7516 44.1159 34.8915 43.703C36.2158 39.2992 37.7914 34.9749 39.6107 30.7514C41.3338 26.7467 43.3965 22.8969 45.7762 19.244C46.1733 18.5552 46.6225 17.8978 47.1199 17.2776C47.6486 16.612 48.2108 15.934 48.8066 15.2436C49.3586 14.6012 49.9332 13.9698 50.5304 13.3493C51.1031 12.744 51.8115 12.2835 52.5972 12.0057C52.9248 11.9209 53.2587 11.8632 53.5957 11.8331C53.7526 11.8251 53.9095 11.8484 54.0573 11.9017C54.205 11.955 54.3408 12.0371 54.4565 12.1433C54.9175 12.742 55.0311 13.4542 54.8017 14.2801C54.5723 15.1059 54.3647 15.8094 54.1812 16.4146C53.1845 18.503 52.0661 20.5311 50.8319 22.4884C49.6142 24.4183 48.3397 26.3009 47.0084 28.1362C45.6772 29.9714 44.3219 31.763 42.9425 33.5108C41.5557 35.2646 39.933 36.8181 38.1206 38.1273C37.6589 39.4601 37.211 40.7804 36.777 42.0884C36.3429 43.3964 35.9409 44.7626 35.5709 46.1871C36.2133 45.2666 36.8906 44.2893 37.6028 43.2551ZM53.7574 14.3871C53.8023 14.1486 53.8257 13.9066 53.8273 13.6639C53.8354 13.4748 53.7995 13.2863 53.7224 13.1134C53.6547 12.9757 53.5039 12.9517 53.2745 13.0435C52.3558 13.5143 51.528 14.1446 50.8297 14.9049C49.9576 15.8079 49.1543 16.7748 48.4264 17.7976C47.669 18.8551 46.9567 19.9118 46.2896 20.9678C45.6226 22.0238 45.0603 22.9188 44.603 23.6529C43.5004 25.7227 42.4669 27.8347 41.5027 29.9889C40.5385 32.1431 39.5983 34.3724 38.6821 36.6766C41.2513 34.336 43.5609 31.7254 45.5708 28.8899C47.5925 26.0424 49.5217 23.0565 51.3584 19.9322C51.6337 19.4275 51.9112 18.9097 52.1865 18.381C52.4698 17.833 52.7229 17.27 52.9446 16.6943L53.2876 16.0039C53.4439 15.6746 53.5598 15.3276 53.6328 14.9705C53.6873 14.779 53.7289 14.5841 53.7574 14.3871Z" fill="black"/>
<path d="M60.5518 45.5619C59.7133 45.559 58.8931 45.3164 58.1879 44.8628L58.1398 44.8344L58.0961 44.7994C57.4637 44.2961 57.0289 43.5859 56.8682 42.7938C56.7045 42.066 56.6493 41.3179 56.7044 40.574C56.7526 39.8296 56.8995 39.0949 57.1413 38.3892C57.1632 38.3236 57.185 38.2581 57.2091 38.1947C57.0157 38.0277 56.8658 37.8163 56.7721 37.5786L56.6935 37.3798V37.1613C56.6848 36.9499 56.7201 36.7391 56.7971 36.542C56.8741 36.345 56.9912 36.1661 57.1409 36.0166C57.2905 35.8671 57.4696 35.7503 57.6668 35.6736C57.8639 35.5968 58.0748 35.5618 58.2862 35.5708H58.4282L59.0443 34.6335C59.3567 34.1528 59.6867 33.6853 60.0275 33.2483C60.4186 32.7423 60.8858 32.3 61.4127 31.9374C61.9723 31.5582 62.5954 31.2822 63.2523 31.1225L63.3855 31.0897H63.521C63.8344 31.0782 64.1461 31.1419 64.4299 31.2754C64.6378 31.3815 64.8274 31.5201 64.9914 31.6862L65.1225 31.8151L65.5791 32.7327L65.5048 33.1041C65.223 34.5067 64.6069 35.6035 63.6696 36.366C62.9242 36.9657 62.0983 37.4577 61.216 37.8277C60.9386 38.3717 60.6807 38.9332 60.4492 39.5034C60.202 40.1917 60.0994 40.9236 60.1476 41.6533C60.2154 41.9876 60.3377 42.1099 60.4863 42.1711C61.2003 42.1294 61.9041 41.9821 62.575 41.7341C63.2576 41.4778 63.9157 41.1604 64.5413 40.7859C65.1618 40.4101 65.7779 40.0081 66.3722 39.5886C67.0218 39.1327 67.6981 38.7161 68.3975 38.3411C69.2583 37.7585 70.1323 37.17 71.0193 36.5758C71.926 35.9706 72.8567 35.3829 73.7853 34.8279C74.0228 34.6746 74.2484 34.5037 74.4604 34.3167C74.7713 34.0238 75.1756 33.85 75.6021 33.826C76.0286 33.802 76.4498 33.9294 76.7916 34.1856L77.3902 34.6225L77.2307 35.3392C77.1543 35.7133 76.9811 36.0609 76.7285 36.3472C76.4759 36.6336 76.1526 36.8487 75.7909 36.9712C75.5529 37.0498 75.3309 37.1704 75.1355 37.3274L75.0612 37.3842C74.1363 38.0309 73.2121 38.6659 72.2887 39.2893C71.3652 39.9127 70.4221 40.5456 69.4593 41.1879C68.699 41.7254 67.8688 42.3022 66.9905 42.903C66.1005 43.5139 65.1673 44.0594 64.1983 44.5351C63.2865 44.9911 62.3137 45.3134 61.31 45.492C61.0596 45.5362 60.806 45.5596 60.5518 45.5619Z" fill="black"/>
<path d="M75.4154 35.9318C75.0523 36.0541 74.7141 36.2406 74.4169 36.4824C73.4979 37.1276 72.5788 37.7598 71.6597 38.3788C70.7406 38.9978 69.7982 39.6292 68.8325 40.273C68.0518 40.8236 67.2252 41.3975 66.3528 41.9947C65.5081 42.5758 64.6216 43.0936 63.7004 43.5437C62.885 43.9545 62.0144 44.2452 61.1158 44.4067C60.3049 44.5442 59.472 44.3719 58.7824 43.9238C58.353 43.5762 58.0604 43.0879 57.9565 42.5452C57.817 41.9241 57.7706 41.2857 57.8189 40.651C57.8598 40.0055 57.987 39.3685 58.1969 38.7568C58.3721 38.2337 58.5914 37.7265 58.8523 37.2405C58.6496 37.2447 58.4501 37.2916 58.2668 37.3781C58.0592 37.4699 57.9106 37.4022 57.8189 37.1706C57.8119 37.1056 57.8197 37.0398 57.8415 36.9782C57.8634 36.9166 57.8988 36.8606 57.9451 36.8145C57.9914 36.7684 58.0475 36.7333 58.1093 36.7117C58.171 36.6901 58.2367 36.6827 58.3017 36.6899C58.5832 36.6968 58.8635 36.6501 59.1276 36.5523C59.4029 36.1393 59.6913 35.7024 59.9884 35.2414C60.2855 34.7804 60.598 34.3456 60.9191 33.9305C61.2401 33.5182 61.6234 33.1585 62.0552 32.8643C62.5058 32.5589 63.0075 32.3369 63.5366 32.2089C63.6777 32.2014 63.8187 32.2253 63.9495 32.2788C64.0524 32.3319 64.1461 32.4012 64.227 32.4841L64.4323 32.8971C64.2036 34.0463 63.7215 34.9202 62.986 35.5189C62.2191 36.1345 61.3582 36.6228 60.4363 36.9652C60.0664 37.6566 59.7331 38.3669 59.4378 39.0932C59.1202 39.9515 58.9906 40.8679 59.0577 41.7805C59.1975 42.6086 59.6323 43.1133 60.3686 43.2968C61.2643 43.2648 62.1492 43.0908 62.9903 42.7812C63.7316 42.5003 64.4466 42.1545 65.1271 41.7478C65.7694 41.356 66.4008 40.9423 67.0213 40.5068C67.6509 40.0641 68.3076 39.6613 68.9877 39.3008C69.8616 38.7036 70.7457 38.1064 71.64 37.5092C72.5344 36.912 73.4418 36.3382 74.3623 35.7876C74.6543 35.6029 74.9311 35.3954 75.1904 35.1671C75.3128 35.0364 75.4801 34.9567 75.6588 34.9442C75.8375 34.9316 76.0143 34.987 76.1539 35.0994C76.1196 35.2928 76.0325 35.4729 75.9021 35.6198C75.7718 35.7667 75.6033 35.8747 75.4154 35.9318ZM62.525 34.7957C63.0037 34.411 63.3127 33.8542 63.3858 33.2445C62.8753 33.5708 62.4215 33.9781 62.0421 34.4505C61.671 34.9033 61.3583 35.4009 61.1114 35.9318C61.579 35.5647 62.0596 35.1846 62.5315 34.7957H62.525Z" fill="black"/>
</svg>
