<svg width="66" height="109" viewBox="0 0 66 109" fill="none" xmlns="http://www.w3.org/2000/svg">
<path d="M65.8198 30.9654C65.866 31.2642 65.8697 31.568 65.8307 31.8677C65.8089 32.0403 65.7848 32.2151 65.7586 32.3899C65.7106 32.7373 65.6538 33.0825 65.5948 33.4277C64.2612 41.1829 60.7037 48.3837 55.3545 54.1551L55.4135 54.0502C54.5518 55.0183 53.4069 55.6904 52.1415 55.971C50.8761 56.2515 49.5545 56.1263 48.3643 55.613C47.1741 55.0998 46.1758 54.2247 45.5112 53.1119C44.8466 51.9991 44.5495 50.7053 44.662 49.414C44.6632 49.4002 44.6632 49.3863 44.662 49.3725C44.6926 49.042 44.7503 48.7147 44.8346 48.3937C45.2716 47.6203 45.6824 46.825 46.0603 46.0101C47.8675 42.1345 48.9062 37.9454 49.1191 33.6746C47.1597 31.7477 45.9546 29.1832 45.7217 26.445C44.0359 26.5524 42.3941 27.0281 40.9121 27.8386C39.43 28.6492 38.1437 29.7749 37.1439 31.1364C36.144 32.4979 35.4548 34.0621 35.1249 35.7188C34.7951 37.3754 34.8325 39.0843 35.2346 40.725C35.3817 41.3348 35.5798 41.9311 35.8266 42.5078C35.9388 42.8457 36.048 43.1844 36.1544 43.5237C36.2607 43.8631 36.3612 44.1821 36.4559 44.4807C36.5433 44.7582 36.6307 45.0378 36.7137 45.3175C36.7552 45.4486 36.7945 45.5818 36.836 45.7129C37.0108 46.2963 37.1834 46.8774 37.3516 47.4608C37.4478 47.7929 37.5417 48.1272 37.6357 48.4592C37.7296 48.7913 37.8192 49.1147 37.9088 49.4424V49.4796C37.9983 49.8095 38.0879 50.135 38.1731 50.4671C38.1731 50.5042 38.195 50.5414 38.2037 50.5785C38.3042 50.9587 38.4025 51.3388 38.503 51.7212C38.6101 52.1385 38.7215 52.558 38.8198 52.9774C38.8198 52.9971 38.8198 53.0168 38.8351 53.0343C38.9247 53.4013 39.0143 53.7662 39.1017 54.1267C39.117 54.1988 39.1345 54.2687 39.1519 54.3451C39.2437 54.734 39.3355 55.1208 39.4229 55.5075C40.0739 58.3434 40.6434 61.2091 41.1314 64.1047C41.4081 65.7477 41.6579 67.3994 41.8808 69.0599C41.9638 69.6804 42.0446 70.3009 42.1189 70.9214C42.8393 76.8473 43.2099 82.8105 43.2288 88.78C43.2288 88.9548 43.2288 89.1318 43.2288 89.3066C43.2366 94.8007 42.947 100.291 42.3614 105.754C40.3493 107.418 37.8326 108.352 35.2218 108.402C32.611 108.453 30.0602 107.617 27.9853 106.031C28.0858 103.765 28.1361 101.487 28.1361 99.1973C28.1361 95.3913 27.997 91.6203 27.7188 87.8843C27.4275 83.9006 26.9788 79.9621 26.3729 76.0688C25.9141 73.0901 25.3686 70.1421 24.7365 67.2246C24.5238 66.2415 24.3054 65.2627 24.0811 64.2883C21.6243 53.9343 18.0691 43.8723 13.476 34.2732C11.5502 29.7215 8.6403 25.6528 4.95518 22.3594C4.97266 22.3354 4.99232 22.3135 5.0098 22.2917C3.4639 21.2307 2.1998 19.8089 1.3269 18.1496C0.453989 16.4902 -0.00144145 14.6431 3.42722e-06 12.7681C3.42722e-06 12.3726 0.0218559 11.9794 0.0589978 11.5926C0.28261 9.38719 1.13634 7.29272 2.51822 5.5594C3.90011 3.82607 5.75173 2.52715 7.85193 1.8178C9.95213 1.10844 12.2121 1.01862 14.362 1.55907C16.5118 2.09952 18.4607 3.2474 19.9758 4.86559C20.0545 4.95735 20.1375 5.04693 20.2227 5.13432L20.2402 5.15398C20.9146 5.82666 21.7809 6.27378 22.72 6.4338C23.659 6.59383 24.6245 6.4589 25.4837 6.04758C32.5523 2.60836 40.2283 0.592854 48.0747 0.115795C49.3215 0.0400547 50.5793 0.00145654 51.8479 0C53.4297 0 54.9948 0.0597199 56.5431 0.179157C57.1679 0.227223 57.7884 0.286215 58.4089 0.351759C59.2151 0.44052 59.9692 0.793312 60.5541 1.35522C61.1389 1.91712 61.5215 2.65661 61.6424 3.45857L62.595 9.75739C62.595 9.75739 65.3566 27.8848 65.8198 30.9654Z" fill="#C5F42C"/>
<path d="M47.1441 61.5248C47.1457 62.8335 46.9194 64.1324 46.4755 65.3635C45.0311 66.6897 43.5021 67.9209 41.8983 69.0493C41.677 67.3888 41.4271 65.7371 41.1489 64.0941C40.661 61.2 40.0915 58.3342 39.4404 55.4969C39.9182 55.0162 40.3814 54.5217 40.83 54.0134C41.0463 53.7687 41.3121 53.5727 41.6098 53.4385C41.9076 53.3043 42.2305 53.2349 42.5571 53.2349C42.8837 53.2349 43.2065 53.3043 43.5043 53.4385C43.802 53.5727 44.0679 53.7687 44.2842 54.0134C46.0073 55.9475 47.0105 58.4169 47.1244 61.0048C47.1397 61.1665 47.1441 61.3456 47.1441 61.5248Z" fill="#C5F42C"/>
</svg>
